<svg version="1.1" id="Layer_1" xmlns="http://www.w3.org/2000/svg" xmlns:xlink="http://www.w3.org/1999/xlink" x="0px" y="0px"
	 width="100%" viewBox="0 0 143 193" enable-background="new 0 0 143 193" xml:space="preserve">
<path fill="#FBFCFC" opacity="1.000000" stroke="none" 
	d="
M0.999997,184.000000 
	C1.000000,123.060692 1.000000,62.121380 1.000000,1.091035 
	C48.558399,1.091035 96.117027,1.091035 144.000000,1.091035 
	C144.000000,38.686939 144.000000,76.374809 143.592575,114.532310 
	C136.850632,117.307449 130.475800,119.508865 124.190750,121.942177 
	C114.048569,125.868835 104.218773,130.818146 93.075394,130.657623 
	C95.527779,125.925667 97.899025,121.534019 100.532776,116.940262 
	C102.161240,114.155746 103.527191,111.573334 105.060844,108.686508 
	C106.549408,105.945992 107.870285,103.509888 109.483521,100.925690 
	C110.539429,99.230164 111.302971,97.682739 112.329079,95.814728 
	C114.093460,87.887352 112.344223,81.641632 104.895721,77.425674 
	C101.106216,76.810356 97.555519,76.451317 93.645462,76.079628 
	C91.131470,76.923172 88.976822,77.779373 86.456917,78.725403 
	C83.398323,79.893204 80.704994,80.971161 77.627792,82.052780 
	C76.479050,82.041344 75.714172,82.026245 74.908844,81.673477 
	C74.828735,80.884178 74.789078,80.432564 74.949203,79.714622 
	C75.771461,78.306976 76.393929,77.165649 77.272285,75.820023 
	C78.657082,73.733261 79.785995,71.850784 81.158432,69.753677 
	C82.022629,68.396996 82.643303,67.254959 83.512932,65.925560 
	C84.467003,64.483322 85.172127,63.228447 86.094246,61.726639 
	C87.138489,59.981030 87.965736,58.482361 88.887741,56.667789 
	C89.374840,55.598763 89.767174,54.845638 90.415955,53.836414 
	C90.695175,50.715816 90.717957,47.851322 90.723785,44.642403 
	C85.688255,32.825821 74.822586,29.779457 65.225616,37.419792 
	C63.573418,39.715820 62.205662,41.825726 60.594345,44.048977 
	C60.177227,44.660961 60.003674,45.159595 59.534554,45.846962 
	C58.054157,48.326904 56.869328,50.618126 55.433243,53.070240 
	C54.773865,54.120132 54.365742,55.009136 53.683258,56.095665 
	C52.236576,58.516239 51.064251,60.739285 49.610481,63.131966 
	C48.542030,64.864555 47.755032,66.427521 46.709557,68.187393 
	C45.643806,69.921738 44.836533,71.459183 43.777962,73.226318 
	C41.745968,76.634087 39.965271,79.812149 37.965546,83.258850 
	C35.814217,86.804749 33.714760,89.996681 31.988045,93.378899 
	C29.267628,98.707535 28.961525,104.059044 32.833076,109.472305 
	C34.620289,111.239952 36.291054,112.689308 38.106483,114.386795 
	C38.794205,114.782539 39.337265,114.930161 40.159798,115.334946 
	C41.944881,115.800018 43.450489,116.007912 45.220955,116.396057 
	C46.988228,116.328049 48.490639,116.079803 50.318047,115.839462 
	C52.144409,115.038002 53.645782,114.228653 55.480530,113.332291 
	C57.248295,112.650429 58.682682,112.055557 60.494503,111.373825 
	C63.583927,110.378571 66.295914,109.470177 69.270630,108.808380 
	C68.246368,111.982735 66.959381,114.910500 65.417877,118.038391 
	C63.781868,120.494690 62.400368,122.750862 60.748062,125.201416 
	C58.901791,127.897247 57.326321,130.398697 55.473610,133.089523 
	C54.379093,135.156509 53.561813,137.034103 52.514046,139.221466 
	C52.238010,141.357574 52.192471,143.183929 52.100910,145.288055 
	C52.225037,146.084045 52.395187,146.602249 52.615936,147.448166 
	C53.022106,148.542877 53.377670,149.309891 53.765205,150.306839 
	C53.797173,150.536774 53.768394,151.000168 53.408821,151.006195 
	C46.009945,155.530945 38.993980,160.086533 31.925804,164.559601 
	C21.636923,171.070892 11.310442,177.522781 0.999997,184.000000 
z"/>
<path fill="#F8F8F8" opacity="1.000000" stroke="none" 
	d="
M0.999997,184.486572 
	C11.310442,177.522781 21.636923,171.070892 31.925804,164.559601 
	C38.993980,160.086533 46.009945,155.530945 53.619663,151.279510 
	C60.793453,159.428665 68.458084,161.112366 75.388260,156.072510 
	C76.857079,155.092682 78.002731,154.172791 79.414749,153.091156 
	C80.178314,152.049942 80.675522,151.170486 81.436783,150.081970 
	C82.758278,147.917831 83.815704,145.962769 85.078804,143.749344 
	C85.873787,142.335556 86.463097,141.180145 87.326103,139.817108 
	C88.576118,137.778641 89.552437,135.947754 90.729065,133.921341 
	C91.331772,132.913589 91.734169,132.101364 92.352646,131.221222 
	C92.568726,131.153320 92.994240,130.997940 92.994240,130.997940 
	C104.218773,130.818146 114.048569,125.868835 124.190750,121.942177 
	C130.475800,119.508865 136.850632,117.307449 143.592575,115.000969 
	C144.000000,141.279510 144.000000,167.559036 144.000000,193.919281 
	C96.333435,193.919281 48.666737,193.919281 1.000000,193.919281 
	C1.000000,190.960876 1.000000,187.967010 0.999997,184.486572 
z"/>
<path fill="#8D77F3" opacity="1.000000" stroke="none" 
	d="
M65.672394,117.838264 
	C66.959381,114.910500 68.246368,111.982735 69.276825,108.474167 
	C70.618355,103.093430 74.587387,101.725578 79.346512,101.033958 
	C81.462219,102.045883 83.231110,103.023247 84.999947,104.407639 
	C82.763840,109.612419 80.656181,114.476334 78.233414,119.177864 
	C77.147110,121.285873 75.429764,123.068695 73.629044,124.994431 
	C71.879562,124.065674 70.343796,123.304710 69.161514,122.174118 
	C67.832092,120.902817 66.821617,119.297997 65.672394,117.838264 
z"/>
<path fill="#9B64BD" opacity="1.000000" stroke="none" 
	d="
M44.956097,116.215813 
	C43.450489,116.007912 41.944881,115.800018 40.471909,115.099670 
	C41.003090,112.736450 41.741539,110.892838 41.957024,108.990005 
	C42.727585,102.185493 43.614460,95.273590 48.926029,90.418945 
	C52.864094,86.819641 57.612541,84.107002 62.423748,80.998230 
	C66.814804,80.658356 70.782104,80.319649 74.749420,79.980942 
	C74.789078,80.432564 74.828735,80.884178 74.567917,81.702942 
	C73.177574,82.383156 72.087723,82.696243 70.624374,83.049103 
	C65.225983,85.500755 59.739319,87.267265 55.274529,90.461929 
	C46.593292,96.673561 45.950535,106.633179 44.956097,116.215813 
z"/>
<path fill="#9E5998" opacity="1.000000" stroke="none" 
	d="
M32.716629,109.154015 
	C28.961525,104.059044 29.267628,98.707535 31.988045,93.378899 
	C33.714760,89.996681 35.814217,86.804749 38.317940,83.254074 
	C40.358971,82.054970 41.766586,81.006683 43.309685,80.226295 
	C48.177494,77.764534 53.096088,75.403206 57.888130,73.262207 
	C57.521709,74.017624 57.262188,74.513840 56.801826,75.281036 
	C45.002995,81.616318 36.881279,90.295845 34.955967,103.820381 
	C34.693073,105.667091 33.486355,107.379448 32.716629,109.154015 
z"/>
<path fill="#9A69CB" opacity="1.000000" stroke="none" 
	d="
M45.220955,116.396057 
	C45.950535,106.633179 46.593292,96.673561 55.274529,90.461929 
	C59.739319,87.267265 65.225983,85.500755 70.575134,83.382782 
	C69.599602,85.450813 68.299805,87.224953 66.649979,89.036652 
	C54.926716,94.374741 49.972187,103.587059 49.993053,115.831558 
	C48.490639,116.079803 46.988228,116.328049 45.220955,116.396057 
z"/>
<path fill="#827AEC" opacity="1.000000" stroke="none" 
	d="
M93.075394,130.657623 
	C92.994240,130.997940 92.568726,131.153320 92.287369,130.855438 
	C90.670784,129.371201 89.335541,128.184830 88.039429,126.640793 
	C93.546753,119.068748 93.826012,111.639679 89.044067,103.622925 
	C89.724892,101.164955 90.362251,99.083466 91.306396,97.152641 
	C95.976334,100.842453 97.222542,105.788513 98.068390,111.026550 
	C98.407875,113.128853 99.513397,115.107460 100.270264,117.142365 
	C97.899025,121.534019 95.527779,125.925667 93.075394,130.657623 
z"/>
<path fill="#4E3758" opacity="1.000000" stroke="none" 
	d="
M65.510063,37.233669 
	C74.822586,29.779457 85.688255,32.825821 90.345695,44.653996 
	C87.321724,45.672367 84.658882,46.334728 81.723038,46.797565 
	C79.280212,45.016788 77.225441,43.235657 74.911995,41.903877 
	C71.884987,40.161316 68.653557,38.773872 65.510063,37.233669 
z"/>
<path fill="#9D5BA4" opacity="1.000000" stroke="none" 
	d="
M32.833076,109.472305 
	C33.486355,107.379448 34.693073,105.667091 34.955967,103.820381 
	C36.881279,90.295845 45.002995,81.616318 57.205524,75.278320 
	C59.539948,75.335838 61.269829,75.667038 62.874359,76.292953 
	C62.498650,77.390762 62.248299,78.193855 61.595245,78.997375 
	C54.160362,80.175125 48.706192,83.654411 44.646839,89.618767 
	C39.571976,97.075188 38.048836,105.382889 37.961819,114.138664 
	C36.291054,112.689308 34.620289,111.239952 32.833076,109.472305 
z"/>
<path fill="#976DD9" opacity="1.000000" stroke="none" 
	d="
M50.318047,115.839462 
	C49.972187,103.587059 54.926716,94.374741 67.063217,89.036041 
	C70.550392,88.665245 73.274292,88.332626 75.998741,88.334114 
	C75.999420,89.113777 75.999557,89.559334 75.822540,90.327911 
	C74.639893,91.099976 73.675377,91.764153 72.622559,91.964577 
	C62.666847,93.859940 55.107464,103.094765 55.147156,113.419296 
	C53.645782,114.228653 52.144409,115.038002 50.318047,115.839462 
z"/>
<path fill="#9D5FB1" opacity="1.000000" stroke="none" 
	d="
M38.106483,114.386795 
	C38.048836,105.382889 39.571976,97.075188 44.646839,89.618767 
	C48.706192,83.654411 54.160362,80.175125 61.596073,79.331161 
	C61.999729,80.109474 61.999866,80.554436 62.000000,80.999390 
	C57.612541,84.107002 52.864094,86.819641 48.926029,90.418945 
	C43.614460,95.273590 42.727585,102.185493 41.957024,108.990005 
	C41.741539,110.892838 41.003090,112.736450 40.192429,114.842499 
	C39.337265,114.930161 38.794205,114.782539 38.106483,114.386795 
z"/>
<path fill="#9274E9" opacity="1.000000" stroke="none" 
	d="
M78.999695,100.999390 
	C74.587387,101.725578 70.618355,103.093430 69.014091,108.227577 
	C66.295914,109.470177 63.583927,110.378571 60.463600,110.942291 
	C60.561409,108.750641 60.781078,106.759712 61.624107,105.082008 
	C64.978691,98.406113 71.233810,96.247284 78.331337,95.000153 
	C79.110809,95.001015 79.556206,95.001724 79.957306,95.381393 
	C79.608574,97.506706 79.304138,99.253044 78.999695,100.999390 
z"/>
<path fill="#9571E2" opacity="1.000000" stroke="none" 
	d="
M77.997253,95.000000 
	C71.233810,96.247284 64.978691,98.406113 61.624107,105.082008 
	C60.781078,106.759712 60.561409,108.750641 60.086166,111.029160 
	C58.682682,112.055557 57.248295,112.650429 55.480530,113.332291 
	C55.107464,103.094765 62.666847,93.859940 72.622559,91.964577 
	C73.675377,91.764153 74.639893,91.099976 76.156387,90.326813 
	C77.112511,90.003418 77.557625,90.004158 78.001740,90.421005 
	C77.999565,92.224754 77.998405,93.612373 77.997253,95.000000 
z"/>
<path fill="#7E7CE3" opacity="1.000000" stroke="none" 
	d="
M100.532776,116.940262 
	C99.513397,115.107460 98.407875,113.128853 98.068390,111.026550 
	C97.222542,105.788513 95.976334,100.842453 91.305855,96.902077 
	C90.997978,96.333824 90.997414,96.166801 91.105667,95.740974 
	C91.476295,94.986916 91.738106,94.491653 92.372757,93.997772 
	C94.163948,94.332344 95.582291,94.665535 97.307938,95.151733 
	C99.410408,98.897949 101.180168,102.504219 103.016846,106.076073 
	C103.542770,107.098862 104.262360,108.022057 104.893150,108.990921 
	C103.527191,111.573334 102.161240,114.155746 100.532776,116.940262 
z"/>
<path fill="#6C3D60" opacity="1.000000" stroke="none" 
	d="
M55.684494,52.909348 
	C56.869328,50.618126 58.054157,48.326904 59.626259,46.243584 
	C61.465137,47.296009 62.831661,48.606720 64.385635,48.890327 
	C67.875458,49.527245 71.458336,49.654236 75.377937,49.991203 
	C76.501762,49.994686 77.250984,49.995789 77.999863,50.331104 
	C78.000900,51.110874 78.002281,51.556431 78.002502,52.401001 
	C77.998894,53.864086 77.996452,54.928154 77.566299,55.993507 
	C75.426300,55.993862 73.713997,55.992928 71.756088,55.712456 
	C66.235146,54.591728 60.959820,53.750538 55.684494,52.909348 
z"/>
<path fill="#573758" opacity="1.000000" stroke="none" 
	d="
M78.000206,49.996887 
	C77.250984,49.995789 76.501762,49.994686 75.368492,49.611782 
	C73.601868,48.092468 72.385162,46.422157 70.801910,45.929260 
	C67.585426,44.927917 64.170845,44.562904 60.837906,43.935631 
	C62.205662,41.825726 63.573418,39.715820 65.225616,37.419792 
	C68.653557,38.773872 71.884987,40.161316 74.911995,41.903877 
	C77.225441,43.235657 79.280212,45.016788 81.724129,47.047951 
	C81.998596,47.664753 81.998978,47.831654 81.673714,48.027435 
	C80.232109,48.703171 79.116158,49.350029 78.000206,49.996887 
z"/>
<path fill="#767BD7" opacity="1.000000" stroke="none" 
	d="
M105.060844,108.686508 
	C104.262360,108.022057 103.542770,107.098862 103.016846,106.076073 
	C101.180168,102.504219 99.410408,98.897949 97.307770,94.714676 
	C96.999184,92.084801 96.998070,90.044991 97.330856,88.003723 
	C98.109947,88.002625 98.555122,88.002991 99.197296,88.274323 
	C101.582962,91.476387 103.743568,94.429077 105.973045,97.328812 
	C106.974785,98.631699 108.114212,99.828720 109.191162,101.073784 
	C107.870285,103.509888 106.549408,105.945992 105.060844,108.686508 
z"/>
<path fill="#6F7BCA" opacity="1.000000" stroke="none" 
	d="
M109.483521,100.925690 
	C108.114212,99.828720 106.974785,98.631699 105.973045,97.328812 
	C103.743568,94.429077 101.582962,91.476387 99.197144,87.874016 
	C98.999695,86.135674 98.999390,85.068596 99.399200,84.000923 
	C100.866310,84.000214 101.933304,84.000107 103.146835,84.300400 
	C106.217743,88.445641 109.142128,92.290482 112.066513,96.135315 
	C111.302971,97.682739 110.539429,99.230164 109.483521,100.925690 
z"/>
<path fill="#8B73ED" opacity="1.000000" stroke="none" 
	d="
M65.417877,118.038391 
	C66.821617,119.297997 67.832092,120.902817 69.161514,122.174118 
	C70.343796,123.304710 71.879562,124.065674 73.658218,125.320206 
	C74.704506,126.766670 75.351875,127.882729 75.713326,129.288940 
	C72.285187,129.719604 69.142975,129.860107 65.705612,129.857483 
	C63.946594,128.145248 62.482731,126.576141 61.018867,125.007042 
	C62.400368,122.750862 63.781868,120.494690 65.417877,118.038391 
z"/>
<path fill="#6F5CBF" opacity="1.000000" stroke="none" 
	d="
M81.172722,150.291016 
	C80.675522,151.170486 80.178314,152.049942 79.155090,152.767517 
	C69.941162,150.777237 61.253246,148.948837 52.565338,147.120453 
	C52.395187,146.602249 52.225037,146.084045 52.498226,145.295776 
	C56.627819,145.681793 60.314075,146.337845 64.433701,146.995911 
	C69.133629,147.336487 73.420174,147.528046 77.654366,148.104340 
	C78.903229,148.274338 80.004051,149.531876 81.172722,150.291016 
z"/>
<path fill="#6A7DBB" opacity="1.000000" stroke="none" 
	d="
M112.329079,95.814728 
	C109.142128,92.290482 106.217743,88.445641 103.151672,83.926743 
	C103.718170,81.395775 104.426353,79.538864 105.134529,77.681953 
	C112.344223,81.641632 114.093460,87.887352 112.329079,95.814728 
z"/>
<path fill="#6B5BB0" opacity="1.000000" stroke="none" 
	d="
M75.065094,156.132446 
	C68.458084,161.112366 60.793453,159.428665 53.979240,151.273483 
	C53.768394,151.000168 53.797173,150.536774 54.157936,150.315033 
	C59.083527,151.387146 63.654533,152.659729 68.210571,153.983810 
	C70.509399,154.651886 72.781120,155.413254 75.065094,156.132446 
z"/>
<path fill="#9B548E" opacity="1.000000" stroke="none" 
	d="
M57.995029,73.003006 
	C53.096088,75.403206 48.177494,77.764534 43.309685,80.226295 
	C41.766586,81.006683 40.358971,82.054970 38.536964,82.985443 
	C39.965271,79.812149 41.745968,76.634087 44.187149,73.226318 
	C49.564816,71.997543 54.282009,70.998466 59.106915,70.258118 
	C59.476814,71.010818 59.739002,71.504799 59.741814,72.106941 
	C58.986637,72.477737 58.490833,72.740372 57.995029,73.003006 
z"/>
<path fill="#8A4A78" opacity="1.000000" stroke="none" 
	d="
M46.968029,67.990479 
	C47.755032,66.427521 48.542030,64.864555 50.046333,63.142017 
	C57.174225,62.655293 63.584816,62.328148 69.997299,62.375023 
	C70.000885,63.497135 70.002579,64.245232 70.001755,65.244942 
	C69.998573,65.664307 69.997917,65.832062 69.664215,65.998215 
	C68.887001,65.996117 68.442841,65.995613 67.725815,65.710579 
	C65.699173,65.425110 63.914383,65.212112 62.197441,65.463142 
	C57.106625,66.207481 52.042557,67.134743 46.968029,67.990479 
z"/>
<path fill="#934F83" opacity="1.000000" stroke="none" 
	d="
M46.709557,68.187393 
	C52.042557,67.134743 57.106625,66.207481 62.197441,65.463142 
	C63.914383,65.212112 65.699173,65.425110 67.494415,65.980652 
	C64.690315,67.689972 61.844757,68.844681 58.999199,69.999390 
	C54.282009,70.998466 49.564816,71.997543 44.438438,72.996620 
	C44.836533,71.459183 45.643806,69.921738 46.709557,68.187393 
z"/>
<path fill="#82466F" opacity="1.000000" stroke="none" 
	d="
M69.995407,62.001007 
	C63.584816,62.328148 57.174225,62.655293 50.327782,62.972382 
	C51.064251,60.739285 52.236576,58.516239 53.780987,56.494728 
	C59.433453,57.462868 64.713829,58.229469 70.214584,59.107300 
	C70.709557,59.420738 70.900185,59.683788 70.984253,60.304817 
	C70.639557,61.068298 70.317482,61.534649 69.995407,62.001007 
z"/>
<path fill="#784167" opacity="1.000000" stroke="none" 
	d="
M69.994202,58.996071 
	C64.713829,58.229469 59.433453,57.462868 54.055347,56.297203 
	C54.365742,55.009136 54.773865,54.120132 55.433239,53.070240 
	C60.959820,53.750538 66.235146,54.591728 71.580200,55.973831 
	C71.098022,57.341858 70.546112,58.168964 69.994202,58.996071 
z"/>
<path fill="#886EE1" opacity="1.000000" stroke="none" 
	d="
M60.748062,125.201416 
	C62.482731,126.576141 63.946594,128.145248 65.734077,130.183197 
	C66.705139,131.768250 67.352585,132.884430 67.826538,134.255310 
	C66.768898,135.340012 65.884750,136.169998 64.600594,136.999817 
	C63.133926,136.999344 62.067280,136.999069 60.851273,136.694611 
	C59.051559,135.227020 57.401207,134.063583 55.750854,132.900146 
	C57.326321,130.398697 58.901791,127.897247 60.748062,125.201416 
z"/>
<path fill="#6A58B6" opacity="1.000000" stroke="none" 
	d="
M75.388260,156.072510 
	C72.781120,155.413254 70.509399,154.651886 68.210571,153.983810 
	C63.654533,152.659729 59.083527,151.387146 54.125969,150.085083 
	C53.377670,149.309891 53.022106,148.542877 52.615940,147.448151 
	C61.253246,148.948837 69.941162,150.777237 78.888725,152.929260 
	C78.002731,154.172791 76.857079,155.092682 75.388260,156.072510 
z"/>
<path fill="#7577B9" opacity="1.000000" stroke="none" 
	d="
M104.895721,77.425674 
	C104.426353,79.538864 103.718170,81.395775 103.005150,83.626343 
	C101.933304,84.000107 100.866310,84.000214 99.140190,83.892456 
	C97.986061,83.521400 97.491043,83.258194 96.960602,82.647751 
	C95.951721,80.231102 94.978271,78.161697 94.004814,76.092285 
	C97.555519,76.451317 101.106216,76.810356 104.895721,77.425674 
z"/>
<path fill="#7C5280" opacity="1.000000" stroke="none" 
	d="
M69.997299,62.375023 
	C70.317482,61.534649 70.639557,61.068298 71.437515,60.303688 
	C74.941559,60.005142 77.969711,60.004860 81.199806,60.276764 
	C82.893578,61.023827 84.385414,61.498699 85.877243,61.973576 
	C85.172127,63.228447 84.467003,64.483322 83.083801,65.851288 
	C78.271896,65.640701 74.138084,65.317009 70.004272,64.993324 
	C70.002579,64.245232 70.000885,63.497135 69.997299,62.375023 
z"/>
<path fill="#9561AE" opacity="1.000000" stroke="none" 
	d="
M62.423748,80.998230 
	C61.999866,80.554436 61.999729,80.109474 61.998772,79.330734 
	C62.248299,78.193855 62.498650,77.390762 63.274193,76.292625 
	C64.865471,75.994225 65.931564,75.990875 67.405525,75.981934 
	C70.881065,75.992340 73.948730,76.008331 77.016396,76.024323 
	C76.393929,77.165649 75.771461,78.306976 74.949203,79.714622 
	C70.782104,80.319649 66.814804,80.658356 62.423748,80.998230 
z"/>
<path fill="#5F3759" opacity="1.000000" stroke="none" 
	d="
M60.594341,44.048977 
	C64.170845,44.562904 67.585426,44.927917 70.801910,45.929260 
	C72.385162,46.422157 73.601868,48.092468 74.993889,49.609398 
	C71.458336,49.654236 67.875458,49.527245 64.385635,48.890327 
	C62.831661,48.606720 61.465137,47.296009 59.921829,46.054855 
	C60.003674,45.159595 60.177227,44.660961 60.594341,44.048977 
z"/>
<path fill="#8268D1" opacity="1.000000" stroke="none" 
	d="
M55.473614,133.089523 
	C57.401207,134.063583 59.051559,135.227020 60.890381,137.059494 
	C61.386208,139.150925 61.693562,140.573334 62.000031,142.246490 
	C61.998772,142.664429 61.998390,142.831604 61.641663,142.961823 
	C58.438389,141.587128 55.591461,140.249420 52.744537,138.911713 
	C53.561813,137.034103 54.379093,135.156509 55.473614,133.089523 
z"/>
<path fill="#956ECD" opacity="1.000000" stroke="none" 
	d="
M75.998199,88.000000 
	C73.274292,88.332626 70.550392,88.665245 67.413239,88.998474 
	C68.299805,87.224953 69.599602,85.450813 70.948631,83.343002 
	C72.087723,82.696243 73.177574,82.383156 74.608368,82.040611 
	C75.714172,82.026245 76.479050,82.041344 77.664017,82.360962 
	C78.722778,83.443886 79.361435,84.222290 79.817139,85.260681 
	C78.422195,86.347115 77.210197,87.173553 75.998199,88.000000 
z"/>
<path fill="#84578D" opacity="1.000000" stroke="none" 
	d="
M70.001755,65.244942 
	C74.138084,65.317009 78.271896,65.640701 82.834839,66.038658 
	C82.643303,67.254959 82.022629,68.396996 80.714539,69.762207 
	C77.351517,69.993103 74.675934,70.000824 72.000198,70.004318 
	C72.000061,70.000099 72.000000,69.994812 71.997330,69.646568 
	C71.328850,68.198822 70.663055,67.099319 69.997253,65.999817 
	C69.997917,65.832062 69.998573,65.664307 70.001755,65.244942 
z"/>
<path fill="#7961C5" opacity="1.000000" stroke="none" 
	d="
M52.514042,139.221466 
	C55.591461,140.249420 58.438389,141.587128 61.689705,143.290314 
	C62.729507,144.768478 63.364918,145.881180 64.000328,146.993896 
	C60.314075,146.337845 56.627819,145.681793 52.544250,145.018021 
	C52.192471,143.183929 52.238010,141.357574 52.514042,139.221466 
z"/>
<path fill="#55405F" opacity="1.000000" stroke="none" 
	d="
M81.999367,47.998550 
	C81.998978,47.831654 81.998596,47.664753 81.997116,47.247471 
	C84.658882,46.334728 87.321724,45.672367 90.362656,44.998413 
	C90.717957,47.851322 90.695175,50.715816 90.101791,53.694992 
	C88.355057,53.204056 87.178925,52.598442 85.967941,51.657967 
	C84.621857,50.214924 83.310616,49.106739 81.999367,47.998550 
z"/>
<path fill="#8E5FA1" opacity="1.000000" stroke="none" 
	d="
M72.000343,70.008545 
	C74.675934,70.000824 77.351517,69.993103 80.471008,69.976852 
	C79.785995,71.850784 78.657082,73.733261 77.272285,75.820023 
	C73.948730,76.008331 70.881065,75.992340 67.444839,75.634445 
	C68.717628,73.531204 70.358986,71.769875 72.000343,70.008545 
z"/>
<path fill="#8C70C7" opacity="1.000000" stroke="none" 
	d="
M80.000092,85.000687 
	C79.361435,84.222290 78.722778,83.443886 78.047890,82.357307 
	C80.704994,80.971161 83.398323,79.893204 86.595367,79.052742 
	C87.733398,80.526016 88.367729,81.761787 88.893753,83.256668 
	C88.522644,84.010719 88.259850,84.505669 87.553085,85.000679 
	C84.739441,85.000725 82.369766,85.000710 80.000092,85.000687 
z"/>
<path fill="#8073BF" opacity="1.000000" stroke="none" 
	d="
M89.002060,82.997559 
	C88.367729,81.761787 87.733398,80.526016 86.960617,78.962906 
	C88.976822,77.779373 91.131470,76.923172 93.645462,76.079628 
	C94.978271,78.161697 95.951721,80.231102 96.516937,82.649460 
	C93.739822,82.998123 91.370941,82.997841 89.002060,82.997559 
z"/>
<path fill="#66476A" opacity="1.000000" stroke="none" 
	d="
M86.002785,51.992828 
	C87.178925,52.598442 88.355057,53.204056 89.845352,53.951096 
	C89.767174,54.845638 89.374840,55.598763 88.498932,56.660355 
	C85.678230,56.648518 83.341103,56.328217 80.627747,56.005268 
	C79.499023,55.999149 78.746513,55.995682 77.994003,55.992218 
	C77.996452,54.928154 77.998894,53.864086 78.446320,52.400455 
	C81.261787,51.998203 83.632286,51.995518 86.002785,51.992828 
z"/>
<path fill="#6E5176" opacity="1.000000" stroke="none" 
	d="
M81.003967,56.007919 
	C83.341103,56.328217 85.678230,56.648518 88.404175,56.976257 
	C87.965736,58.482361 87.138489,59.981030 86.094246,61.726639 
	C84.385414,61.498699 82.893578,61.023827 81.200500,59.876831 
	C81.000824,58.139111 81.002396,57.073513 81.003967,56.007919 
z"/>
<path fill="#8372EA" opacity="1.000000" stroke="none" 
	d="
M68.000031,134.000610 
	C67.352585,132.884430 66.705139,131.768250 66.029221,130.326340 
	C69.142975,129.860107 72.285187,129.719604 76.110764,129.240051 
	C80.529518,128.266815 84.264908,127.632645 88.000305,126.998474 
	C89.335541,128.184830 90.670784,129.371201 92.071289,130.923340 
	C91.734169,132.101364 91.331772,132.913589 90.243622,133.893005 
	C82.371910,134.040329 75.185974,134.020462 68.000031,134.000610 
z"/>
<path fill="#7E6CE1" opacity="1.000000" stroke="none" 
	d="
M67.826538,134.255310 
	C75.185974,134.020462 82.371910,134.040329 90.043304,134.088531 
	C89.552437,135.947754 88.576118,137.778641 86.978935,139.670288 
	C85.415543,139.711777 84.471596,139.649200 83.530724,139.680191 
	C77.193047,139.888992 70.660858,141.470490 65.000610,137.000000 
	C65.884750,136.169998 66.768898,135.340012 67.826538,134.255310 
z"/>
<path fill="#7A68D7" opacity="1.000000" stroke="none" 
	d="
M64.600594,136.999817 
	C70.660858,141.470490 77.193047,139.888992 83.530724,139.680191 
	C84.471596,139.649200 85.415543,139.711777 86.705238,139.877899 
	C86.463097,141.180145 85.873787,142.335556 84.626312,143.747162 
	C76.645744,143.334137 69.323326,142.664932 62.000916,141.995728 
	C61.693562,140.573334 61.386208,139.150925 61.039742,137.363647 
	C62.067280,136.999069 63.133926,136.999344 64.600594,136.999817 
z"/>
<path fill="#7564CD" opacity="1.000000" stroke="none" 
	d="
M62.000031,142.246490 
	C69.323326,142.664932 76.645744,143.334137 84.420639,144.005524 
	C83.815704,145.962769 82.758278,147.917831 81.436783,150.081970 
	C80.004051,149.531876 78.903229,148.274338 77.654366,148.104340 
	C73.420174,147.528046 69.133629,147.336487 64.433701,146.995911 
	C63.364918,145.881180 62.729507,144.768478 62.046055,143.327271 
	C61.998390,142.831604 61.998772,142.664429 62.000031,142.246490 
z"/>
<path fill="#8677F2" opacity="1.000000" stroke="none" 
	d="
M88.039429,126.640793 
	C84.264908,127.632645 80.529518,128.266815 76.396683,128.949890 
	C75.351875,127.882729 74.704506,126.766670 74.027954,125.324852 
	C75.429764,123.068695 77.147110,121.285873 78.233414,119.177864 
	C80.656181,114.476334 82.763840,109.612419 85.399994,104.407410 
	C86.866936,103.999893 87.933769,103.999641 89.000610,103.999390 
	C93.826012,111.639679 93.546753,119.068748 88.039429,126.640793 
z"/>
<path fill="#8A77EA" opacity="1.000000" stroke="none" 
	d="
M89.044067,103.622925 
	C87.933769,103.999641 86.866936,103.999893 85.400047,104.000381 
	C83.231110,103.023247 81.462219,102.045883 79.346512,101.033958 
	C79.304138,99.253044 79.608574,97.506706 80.388779,95.380676 
	C84.241982,95.333916 87.619415,95.666847 90.996849,95.999779 
	C90.997414,96.166801 90.997978,96.333824 90.999069,96.751411 
	C90.362251,99.083466 89.724892,101.164955 89.044067,103.622925 
z"/>
<path fill="#94589A" opacity="1.000000" stroke="none" 
	d="
M72.000198,70.004318 
	C70.358986,71.769875 68.717628,73.531204 67.036964,75.640030 
	C65.931564,75.990875 64.865471,75.994225 63.399551,75.997910 
	C61.269829,75.667038 59.539948,75.335838 57.406364,75.007339 
	C57.262188,74.513840 57.521709,74.017624 57.888130,73.262207 
	C58.490833,72.740372 58.986637,72.477737 60.095779,71.952667 
	C64.472740,71.125092 68.236374,70.559952 72.000000,69.994812 
	C72.000000,69.994812 72.000061,70.000099 72.000198,70.004318 
z"/>
<path fill="#8C70D4" opacity="1.000000" stroke="none" 
	d="
M79.817139,85.260681 
	C82.369766,85.000710 84.739441,85.000725 87.661819,85.259193 
	C88.477470,86.011765 88.740417,86.505898 88.876617,87.294312 
	C88.499443,88.392097 88.249008,89.195587 87.544594,89.999184 
	C84.061317,90.001152 81.032036,90.003014 78.002747,90.004883 
	C77.557625,90.004158 77.112511,90.003418 76.333542,90.003784 
	C75.999557,89.559334 75.999420,89.113777 75.998741,88.334114 
	C77.210197,87.173553 78.422195,86.347115 79.817139,85.260681 
z"/>
<path fill="#8A74E0" opacity="1.000000" stroke="none" 
	d="
M78.001740,90.421005 
	C81.032036,90.003014 84.061317,90.001152 87.725708,90.259155 
	C89.573845,91.678154 90.786880,92.837273 91.999924,93.996399 
	C91.738106,94.491653 91.476295,94.986916 91.105667,95.740974 
	C87.619415,95.666847 84.241982,95.333916 80.433075,95.001709 
	C79.556206,95.001724 79.110809,95.001015 78.331329,95.000153 
	C77.998405,93.612373 77.999565,92.224754 78.001740,90.421005 
z"/>
<path fill="#8177D7" opacity="1.000000" stroke="none" 
	d="
M92.372757,93.997772 
	C90.786880,92.837273 89.573845,91.678154 88.179688,90.259056 
	C88.249008,89.195587 88.499443,88.392097 89.288383,87.294098 
	C92.216911,87.334785 94.606934,87.669991 96.996948,88.005188 
	C96.998070,90.044991 96.999184,92.084801 97.000473,94.561661 
	C95.582291,94.665535 94.163948,94.332344 92.372757,93.997772 
z"/>
<path fill="#744870" opacity="1.000000" stroke="none" 
	d="
M80.627747,56.005268 
	C81.002396,57.073513 81.000824,58.139111 80.998558,59.604641 
	C77.969711,60.004860 74.941559,60.005142 71.460136,60.006557 
	C70.900185,59.683788 70.709557,59.420738 70.214584,59.107300 
	C70.546112,58.168964 71.098022,57.341858 71.825813,56.253372 
	C73.713997,55.992928 75.426300,55.993862 77.566299,55.993507 
	C78.746513,55.995682 79.499023,55.999149 80.627747,56.005268 
z"/>
<path fill="#5C4162" opacity="1.000000" stroke="none" 
	d="
M85.967941,51.657967 
	C83.632286,51.995518 81.261787,51.998203 78.447479,52.001434 
	C78.002281,51.556431 78.000900,51.110874 77.999863,50.331100 
	C79.116158,49.350029 80.232109,48.703171 81.673714,48.027431 
	C83.310616,49.106739 84.621857,50.214924 85.967941,51.657967 
z"/>
<path fill="#7E74CA" opacity="1.000000" stroke="none" 
	d="
M97.330856,88.003723 
	C94.606934,87.669991 92.216911,87.334785 89.415131,86.999809 
	C88.740417,86.505898 88.477470,86.011765 88.105789,85.259125 
	C88.259850,84.505669 88.522644,84.010719 88.893753,83.256668 
	C91.370941,82.997841 93.739822,82.998123 96.552368,82.996704 
	C97.491043,83.258194 97.986061,83.521400 98.740082,83.893066 
	C98.999390,85.068596 98.999695,86.135674 99.000153,87.603058 
	C98.555122,88.002991 98.109947,88.002625 97.330856,88.003723 
z"/>
<path fill="#8F538D" opacity="1.000000" stroke="none" 
	d="
M71.997330,69.646568 
	C68.236374,70.559952 64.472740,71.125092 60.355152,71.844505 
	C59.739002,71.504799 59.476814,71.010818 59.106915,70.258118 
	C61.844757,68.844681 64.690315,67.689972 67.767273,66.265190 
	C68.442841,65.995613 68.887001,65.996117 69.664215,65.998215 
	C70.663055,67.099319 71.328850,68.198822 71.997330,69.646568 
z"/>
</svg>